:SAMPLES-PER-SECOND 30
:FRAME-RANGE 1-744
:FULLY-SPECIFIED
:DEGREES
210
root  -13.9705 39.3463 -45.5225 -1.14676 27.6819 -11.5042
RightUpLeg  -7.74696 -3.25139 2.73824
RightLeg  1.16975 -29.2304 5.061
RightFoot  1.62411 -0.53583 4.80963
RightToes  -5.28216e-011 1.2921e-014 -6.02303e-014
Spine  -13.6552 -12.0995 17.1042
Spine1  19.0264 -13.8035 -3.48674
HEad  11.6451 4.13423 2.52429
LeftShoulder1  1.29654 -2.00363 -18.072
LeftArm  -3.00745 26.1577 -43.752
LeftForeArm  16.7961 -67.7448 -27.356
LeftHand  0.110075 1.96356 -4.1774
RightShoulder  0.69701 -1.2179 27.1572
RightArm  -2.7783 -14.8153 40.8683
RightForeArm  33.954 71.289 31.4299
RightHand  -0.053598 -6.65749 1.42297
LeftUpLeg  -0.0261878 -3.37708 23.8306
LeftLeg  36.8642 17.6931 14.0822
LeftFoot  5.97065 0.467269 -3.30806
LeftToes  -9.4837e-011 -7.11147e-011 -1.07582e-011
211
root  -14.0594 39.4108 -44.2554 -0.330795 24.9927 -11.4312
RightUpLeg  -6.38876 -3.33214 3.75529
RightLeg  0.375209 -26.43 6.26017
RightFoot  -0.165827 -0.407383 4.14962
RightToes  -5.28216e-011 1.2921e-014 -6.02303e-014
Spine  -15.0531 -12.0867 20.0968
Spine1  19.6036 -13.3717 -6.35999
HEad  11.9334 6.67339 1.96295
LeftShoulder1  1.40148 -2.45144 -17.991
LeftArm  -3.63373 26.0534 -43.7733
LeftForeArm  14.8462 -66.6819 -25.9555
LeftHand  0.113666 1.97394 -4.31696
RightShoulder  0.808239 -0.867597 26.9671
RightArm  -1.8451 -13.6381 41.0048
RightForeArm  33.5252 71.0603 30.9744
RightHand  -0.0490972 -6.76634 0.927231
LeftUpLeg  -3.63015 -4.11934 22.0688
LeftLeg  42.4074 9.78151 9.81976
LeftFoot  -0.0362193 0.602352 -6.08149
LeftToes  -9.4837e-011 -7.11147e-011 -1.07582e-011
212
root  -14.0714 39.451 -42.977 0.588486 22.1357 -11.4407
RightUpLeg  -4.7906 -2.95391 4.83287
RightLeg  -0.78724 -23.7358 6.86519
RightFoot  -1.69881 -0.366359 4.20326
RightToes  -5.28216e-011 1.2921e-014 -6.02303e-014
Spine  -16.7323 -11.6827 23.601
Spine1  19.9855 -12.5541 -9.75099
HEad  12.8321 9.19932 1.37591
LeftShoulder1  1.43257 -2.58695 -17.9568
LeftArm  -4.48788 26.1663 -43.7747
LeftForeArm  14.0801 -66.0168 -25.0937
LeftHand  0.122112 1.69715 -4.2053
RightShoulder  0.901482 -0.569234 26.7875
RightArm  -0.730831 -12.4474 41.2939
RightForeArm  32.9879 70.6907 30.2393
RightHand  -0.0459296 -6.93882 0.547661
LeftUpLeg  -7.40765 -5.29192 19.5272
LeftLeg  46.7648 5.8913 7.0894
LeftFoot  -3.56632 0.560197 -7.92143
LeftToes  -9.4837e-011 -7.11147e-011 -1.07582e-011
213
root  -14.0674 39.5144 -41.7271 1.32637 18.9453 -11.1957
RightUpLeg  -3.16435 -2.86789 5.43623
RightLeg  -1.22203 -20.5484 7.10828
RightFoot  -2.90401 -0.325822 4.14604
RightToes  -5.28216e-011 1.2921e-014 -6.02303e-014
Spine  -17.2266 -11.096 26.5731
Spine1  19.3898 -11.5927 -12.5685
HEad  13.3063 11.4083 0.493984
LeftShoulder1  1.4159 -2.3922 -18.5382
LeftArm  -5.43952 26.2764 -43.2666
LeftForeArm  15.1416 -66.1849 -25.1852
LeftHand  0.196283 -0.557848 -3.79765
RightShoulder  1.00942 -0.196909 26.3287
RightArm  0.249689 -11.5719 41.6163
RightForeArm  32.7032 70.6983 30.3121
RightHand  -0.0433097 -7.31185 0.184848
LeftUpLeg  -10.9199 -6.39053 16.3653
LeftLeg  49.5178 6.19291 8.15815
LeftFoot  -5.08844 0.466481 -7.97404
LeftToes  -9.4837e-011 -7.11147e-011 -1.07582e-011
214
root  -14.0549 39.5807 -40.376 1.6398 16.2634 -10.9475
RightUpLeg  -0.457752 -2.8785 5.83522
RightLeg  -2.69203 -17.7399 7.63676
RightFoot  -3.71982 -0.251288 3.39043
RightToes  -5.28216e-011 1.2921e-014 -6.02303e-014
Spine  -18.4052 -10.5159 28.6969
Spine1  19.9254 -10.7726 -15.1384
HEad  13.1008 13.394 -0.457803
LeftShoulder1  1.39704 -2.14037 -19.4023
LeftArm  -5.98755 25.7052 -42.4686
LeftForeArm  14.8834 -66.1521 -25.1743
LeftHand  0.200971 -0.769782 -3.73185
RightShoulder  1.14669 0.278259 25.8688
RightArm  0.712997 -10.775 42.0768
RightForeArm  32.4231 70.7166 30.4079
RightHand  -0.036906 -7.41089 -0.195442
LeftUpLeg  -13.9621 -8.57063 13.2427
LeftLeg  50.4716 8.45362 11.2631
LeftFoot  -6.8142 0.324535 -7.17203
LeftToes  -9.4837e-011 -7.11147e-011 -1.07582e-011
215
root  -14.0488 39.6089 -39.059 1.86681 13.8517 -10.6039
RightUpLeg  2.1802 -3.14266 5.87441
RightLeg  -3.83721 -15.1132 8.07856
RightFoot  -4.66159 -0.189452 2.70167
RightToes  -5.28216e-011 1.2921e-014 -6.02303e-014
Spine  -18.8321 -10.0698 29.9023
Spine1  19.9513 -10.1796 -16.6748
HEad  12.7 14.8267 -1.25607
LeftShoulder1  1.33047 -1.702 -20.3837
LeftArm  -6.33538 24.5279 -41.8512
LeftForeArm  13.6226 -65.4311 -24.3527
LeftHand  0.2127 -0.745309 -3.9726
RightShoulder  1.25975 0.687442 25.4257
RightArm  1.12674 -10.0744 42.3213
RightForeArm  32.4379 70.9279 30.8855
RightHand  -0.0250677 -7.67441 -0.806274
LeftUpLeg  -17.1199 -11.3296 10.4047
LeftLeg  49.9457 10.861 13.9459
LeftFoot  -8.13046 0.226461 -6.33848
LeftToes  -9.4837e-011 -7.11147e-011 -1.07582e-011
216
root  -14.0424 39.5895 -37.7515 1.98763 11.7817 -10.2856
RightUpLeg  4.49803 -3.62367 5.63542
RightLeg  -4.03339 -12.3562 8.25814
RightFoot  -5.86766 -0.119078 1.65643
RightToes  -5.28216e-011 1.2921e-014 -6.02303e-014
Spine  -19.4901 -9.44638 30.8195
Spine1  20.5848 -9.40905 -17.8669
HEad  12.1189 15.8899 -1.84701
LeftShoulder1  1.32021 -1.55443 -21.0199
LeftArm  -6.87676 23.222 -41.7678
LeftForeArm  12.4954 -64.7749 -23.6506
LeftHand  0.218305 -0.602783 -4.19294
RightShoulder  1.30811 0.877138 25.1476
RightArm  1.16998 -9.28741 42.6837
RightForeArm  32.5809 71.1432 31.3619
RightHand  -0.0155481 -7.84242 -1.2176
LeftUpLeg  -20.0704 -14.6534 8.18605
LeftLeg  47.4731 12.8107 14.9274
LeftFoot  -9.14009 0.164592 -5.71447
LeftToes  -9.4837e-011 -7.11147e-011 -1.07582e-011
217
root  -14.0547 39.5341 -36.415 1.87946 10.1443 -9.97305
RightUpLeg  7.21396 -4.16931 5.25462
RightLeg  -4.48581 -10.0991 8.55418
RightFoot  -6.85819 -0.0753124 0.734744
RightToes  -5.28216e-011 1.2921e-014 -6.02303e-014
Spine  -20.0176 -8.94856 31.4816
Spine1  21.0976 -8.68809 -19.0807
HEad  11.9563 16.2689 -1.80602
LeftShoulder1  1.33717 -1.59703 -21.1376
LeftArm  -7.46237 22.5085 -41.932
LeftForeArm  12.0608 -64.6021 -23.4902
LeftHand  0.218435 -0.741307 -4.08482
RightShoulder  1.37851 1.10145 25.1658
RightArm  1.12032 -8.75152 42.6297
RightForeArm  33.1262 71.5356 32.211
RightHand  -0.0102215 -8.16326 -1.36189
LeftUpLeg  -22.5851 -18.4557 6.73616
LeftLeg  43.1872 14.2605 14.2885
LeftFoot  -9.42502 0.152456 -5.73716
LeftToes  -9.4837e-011 -7.11147e-011 -1.07582e-011
218
root  -14.0774 39.4489 -35.0537 1.7018 8.90878 -9.37209
RightUpLeg  10.3009 -4.78105 4.52317
RightLeg  -5.38101 -8.16452 8.77556
RightFoot  -7.99479 -0.0535613 -0.0218264
RightToes  -5.28216e-011 1.2921e-014 -6.02303e-014
Spine  -20.2525 -8.72216 31.3754
Spine1  21.3168 -8.21013 -19.9609
HEad  12.056 16.7437 -1.66236
LeftShoulder1  1.23237 -1.19707 -21.237
LeftArm  -7.38462 21.6003 -41.7567
LeftForeArm  11.8077 -64.6775 -23.6162
LeftHand  0.201866 -1.08718 -3.53123
RightShoulder  1.42918 1.25673 25.2219
RightArm  1.31098 -8.33214 42.4773
RightForeArm  33.4571 71.9086 33.1091
RightHand  0.00156063 -8.6197 -1.66249
LeftUpLeg  -24.6554 -22.0909 5.72641
LeftLeg  37.057 15.3418 12.4592
LeftFoot  -8.11592 0.194961 -5.19518
LeftToes  -9.4837e-011 -7.11147e-011 -1.07582e-011
219
root  -14.1345 39.2975 -33.6845 1.34503 8.0677 -8.6012
RightUpLeg  13.4005 -5.33372 3.58548
RightLeg  -5.79174 -6.58569 8.80363
RightFoot  -9.43419 -0.0563645 -0.452689
RightToes  -5.28216e-011 1.2921e-014 -6.02303e-014
Spine  -20.2024 -8.67852 30.774
Spine1  21.4061 -7.80276 -20.9874
HEad  12.1432 16.939 -1.28925
LeftShoulder1  1.16169 -0.977204 -20.9739
LeftArm  -7.41792 21.2324 -41.7208
LeftForeArm  11.7131 -65.0237 -24.0685
LeftHand  0.223738 -0.333883 -4.53404
RightShoulder  1.4541 1.33332 25.2468
RightArm  1.36691 -8.28959 42.5211
RightForeArm  33.9186 72.3273 34.1648
RightHand  0.00848573 -8.94686 -1.7845
LeftUpLeg  -26.3727 -26.0243 5.40802
LeftLeg  29.8821 17.3047 10.8074
LeftFoot  -4.93774 0.372061 -6.11881
LeftToes  -9.4837e-011 -7.11147e-011 -1.07582e-011
220
root  -14.1908 39.0669 -32.2698 0.604462 7.52446 -7.88097
RightUpLeg  16.6495 -6.06862 2.52321
RightLeg  -5.50509 -5.34453 8.89845
RightFoot  -11.202 -0.0742068 -1.30568
RightToes  -5.28216e-011 1.2921e-014 -6.02303e-014
Spine  -19.4894 -8.93741 29.8843
Spine1  21.1155 -7.6633 -21.6914
HEad  12.4586 17.0119 -0.790704
LeftShoulder1  1.06735 -0.658527 -20.7592
LeftArm  -7.35192 21.1393 -41.4333
LeftForeArm  12.0954 -65.7331 -24.9668
LeftHand  0.207369 0.184994 -4.69033
RightShoulder  1.47749 1.40881 25.2443
RightArm  1.57959 -8.54993 42.3347
RightForeArm  35.2488 73.0443 36.0289
RightHand  0.0217377 -9.54395 -1.97492
LeftUpLeg  -26.7091 -30.1676 5.26088
LeftLeg  21.4304 21.1103 10.357
LeftFoot  -1.77401 0.616853 -7.23873
LeftToes  -9.4837e-011 -7.11147e-011 -1.07582e-011
221
root  -14.2491 38.7901 -30.8531 -0.402908 7.19652 -7.08678
RightUpLeg  20.1295 -6.69657 1.30248
RightLeg  -5.04475 -4.5736 9.01378
RightFoot  -13.0923 -0.107977 -1.27085
RightToes  -5.28216e-011 1.2921e-014 -6.02303e-014
Spine  -18.4384 -9.45641 28.5421
Spine1  20.8253 -7.75322 -22.3324
HEad  12.6183 17.4913 -0.640404
LeftShoulder1  0.94644 -0.244213 -20.475
LeftArm  -7.2369 21.3095 -41.0603
LeftForeArm  12.7858 -66.5071 -25.9846
LeftHand  0.209295 0.334128 -4.8949
RightShoulder  1.46851 1.39765 25.1209
RightArm  1.84537 -8.76063 42.5632
RightForeArm  36.7599 73.6125 37.5728
RightHand  0.0228204 -9.63423 -1.97507
LeftUpLeg  -22.9633 -15.4265 -4.20964
LeftLeg  10.7795 6.43003 11.024
LeftFoot  -3.06819 0.477463 -6.34418
LeftToes  -9.4837e-011 -7.11147e-011 -1.07582e-011
